<svg xmlns="http://www.w3.org/2000/svg" viewBox="0 0 100 100"><defs><linearGradient id="g" x1="0" y1="0" x2="0" y2="1"><stop offset="0" stop-color="#7d7cf0"/><stop offset="1" stop-color="#5856d6"/></linearGradient></defs><rect width="100" height="100" rx="22.4" fill="url(#g)"/><g transform="translate(22 22) scale(2.33)" fill="none" stroke="#fff" stroke-width="2.2" stroke-linecap="round" stroke-linejoin="round"><path d="M21.42 10.922a1 1 0 0 0-.019-1.838L12.83 5.18a2 2 0 0 0-1.66 0L2.6 9.08a1 1 0 0 0 0 1.832l8.57 3.908a2 2 0 0 0 1.66 0z"/><path d="M22 10v6"/><path d="M6 12.5V16a6 3 0 0 0 12 0v-3.5"/></g></svg>
